<svg width="111" height="111" viewBox="0 0 111 111" fill="none" xmlns="http://www.w3.org/2000/svg">
<path d="M4.625 39.6548V20.4795C4.62504 19.1904 4.98424 17.9269 5.66229 16.8306C6.34034 15.7343 7.31043 14.8485 8.46375 14.2728L24.6512 6.179C25.6136 5.69858 26.6744 5.44849 27.75 5.44849C28.8256 5.44849 29.8864 5.69858 30.8488 6.179L47.0363 14.2728C48.1896 14.8485 49.1597 15.7343 49.8377 16.8306C50.5158 17.9269 50.875 19.1904 50.875 20.4795V39.6548C50.8741 40.943 50.5145 42.2056 49.8365 43.301C49.1585 44.3964 48.1889 45.2814 47.0363 45.8569L30.8488 53.9506C29.8864 54.431 28.8256 54.6811 27.75 54.6811C26.6744 54.6811 25.6136 54.431 24.6512 53.9506L8.46375 45.8569C7.31113 45.2814 6.34151 44.3964 5.6635 43.301C4.9855 42.2056 4.6259 40.943 4.625 39.6548ZM11.8076 20.9374C11.5343 21.4852 11.4894 22.1191 11.6828 22.6999C11.8761 23.2808 12.2919 23.7613 12.839 24.0361L25.4375 30.34V43.9375C25.4375 44.5508 25.6811 45.139 26.1148 45.5727C26.5485 46.0064 27.1367 46.25 27.75 46.25C28.3633 46.25 28.9515 46.0064 29.3852 45.5727C29.8189 45.139 30.0625 44.5508 30.0625 43.9375V30.34L42.661 24.0408C42.9328 23.9047 43.1751 23.7164 43.3742 23.4867C43.5732 23.257 43.7251 22.9904 43.8211 22.702C43.917 22.4136 43.9553 22.1091 43.9336 21.806C43.9119 21.5028 43.8307 21.2069 43.6947 20.9351C43.5586 20.6633 43.3704 20.4209 43.1407 20.2219C42.911 20.0228 42.6443 19.871 42.3559 19.775C42.0675 19.679 41.7631 19.6408 41.4599 19.6625C41.1567 19.6841 40.8608 19.7653 40.589 19.9014L27.75 26.3255L14.911 19.9014C14.6392 19.7655 14.3433 19.6845 14.0403 19.663C13.7372 19.6416 13.4328 19.6801 13.1446 19.7763C12.8564 19.8725 12.59 20.0245 12.3606 20.2238C12.1312 20.423 11.9433 20.6655 11.8076 20.9374ZM16.1875 54.8895V79.7812C16.1863 80.6396 16.5034 81.4679 17.0774 82.1061C17.6515 82.7442 18.4418 83.1469 19.2955 83.2361C20.2544 80.5317 22.0279 78.191 24.3719 76.536C26.7159 74.8811 29.5152 73.9933 32.3845 73.9948C35.2539 73.9963 38.0522 74.8871 40.3945 76.5445C42.7367 78.202 44.5077 80.5446 45.4637 83.25H56.2955C57.2524 80.5455 59.0238 78.204 61.366 76.5475C63.7083 74.8911 66.5062 74.0011 69.375 74V24.2812C69.375 23.3613 69.0095 22.479 68.359 21.8285C67.7085 21.178 66.8262 20.8125 65.9062 20.8125H55.5V20.4795C55.5 18.0745 54.7554 15.7805 53.4326 13.875H65.9062C68.6662 13.875 71.313 14.9714 73.2646 16.9229C75.2161 18.8745 76.3125 21.5213 76.3125 24.2812V27.75H83.4812C87.505 27.75 91.168 30.0671 92.8885 33.7024L100.751 50.2969C101.408 51.6844 101.75 53.2106 101.75 54.7507V79.7812C101.75 82.5412 100.654 85.188 98.7021 87.1396C96.7505 89.0911 94.1037 90.1875 91.3438 90.1875H83.0604C82.5194 93.4262 80.8473 96.368 78.3415 98.49C75.8357 100.612 72.6586 101.776 69.375 101.776C66.0914 101.776 62.9143 100.612 60.4085 98.49C57.9027 96.368 56.2306 93.4262 55.6896 90.1875H46.065C45.5243 93.4312 43.8492 96.3774 41.3383 98.5008C38.8273 100.624 35.6438 101.787 32.3554 101.781C29.067 101.776 25.8874 100.602 23.3836 98.4705C20.8799 96.3386 19.2147 93.3867 18.685 90.1412C16.1047 89.8994 13.7075 88.7033 11.9625 86.7872C10.2175 84.8712 9.25021 82.3729 9.25 79.7812V51.4207L16.1875 54.8895ZM76.3125 75.8592C79.1757 77.514 81.3562 80.134 82.4638 83.25H91.3438C92.2637 83.25 93.146 82.8845 93.7965 82.234C94.447 81.5835 94.8125 80.7012 94.8125 79.7812V78.625H89.0312C88.1113 78.625 87.229 78.2595 86.5785 77.609C85.928 76.9585 85.5625 76.0762 85.5625 75.1562C85.5625 74.2363 85.928 73.354 86.5785 72.7035C87.229 72.053 88.1113 71.6875 89.0312 71.6875H94.8125V57.8125H76.3125V75.8592ZM83.4812 34.6875H76.3125V50.875H93.3464L86.6263 36.6762C86.3457 36.0817 85.9021 35.5791 85.3469 35.227C84.7917 34.8749 84.1479 34.6878 83.4905 34.6875H83.4812ZM25.4375 87.875C25.4375 88.786 25.6169 89.6882 25.9656 90.5299C26.3142 91.3716 26.8252 92.1363 27.4694 92.7805C28.1137 93.4248 28.8784 93.9358 29.7201 94.2844C30.5618 94.633 31.464 94.8125 32.375 94.8125C33.286 94.8125 34.1882 94.633 35.0299 94.2844C35.8716 93.9358 36.6363 93.4248 37.2806 92.7805C37.9248 92.1363 38.4358 91.3716 38.7844 90.5299C39.1331 89.6882 39.3125 88.786 39.3125 87.875C39.3125 86.035 38.5816 84.2705 37.2806 82.9694C35.9795 81.6684 34.2149 80.9375 32.375 80.9375C30.5351 80.9375 28.7705 81.6684 27.4694 82.9694C26.1684 84.2705 25.4375 86.035 25.4375 87.875ZM69.375 94.8125C71.2149 94.8125 72.9795 94.0816 74.2805 92.7805C75.5816 91.4795 76.3125 89.7149 76.3125 87.875C76.3125 86.035 75.5816 84.2705 74.2805 82.9694C72.9795 81.6684 71.2149 80.9375 69.375 80.9375C67.5351 80.9375 65.7705 81.6684 64.4694 82.9694C63.1684 84.2705 62.4375 86.035 62.4375 87.875C62.4375 89.7149 63.1684 91.4795 64.4694 92.7805C65.7705 94.0816 67.5351 94.8125 69.375 94.8125Z" fill="white"/>
</svg>
