<svg width="136" height="136" viewBox="0 0 136 136" fill="none" xmlns="http://www.w3.org/2000/svg">
<path d="M25.5 12.75V123.25H110.5V40.8L109.225 39.525L83.725 14.025L82.45 12.75H25.5ZM34 21.25H76.5V46.75H102V114.75H34V21.25ZM85 27.2L96.05 38.25H85V27.2ZM42.5 55.25V63.75H93.5V55.25H42.5ZM57.375 68C53.55 68 50.575 70.55 48.875 73.525C47.175 76.5 46.75 80.325 46.75 84.575C46.75 87.125 47.6 89.675 48.025 92.225C46.325 92.65 44.625 93.925 42.5 93.925V102.425C45.475 102.425 48.45 102 51 101.15C51.425 102 51.425 102.425 52.275 103.275C53.975 104.975 56.525 106.25 59.5 106.25C66.3 106.25 70.55 101.575 73.525 98.175C73.95 97.325 74.375 96.9 74.8 96.475C74.8 96.9 74.8 97.325 75.225 97.75C75.65 98.6 76.075 99.45 76.925 100.3C77.775 101.15 79.475 102 80.75 102C83.3 102 85 100.3 85.85 99.45C86.7 98.6 87.55 97.325 88.4 96.475C90.1 94.775 91.375 93.5 93.075 93.5V85C87.975 85 84.15 87.975 82.025 90.525C82.025 90.1 82.025 89.675 81.6 89.25C81.175 88.4 80.75 87.55 79.9 86.275C79.05 85 77.775 85 76.5 85C73.1 85 71.825 87.125 70.55 88.4C69.275 89.675 68 91.375 67.15 93.075C64.6 96.05 62.9 97.75 59.5 97.75C59.075 97.75 59.075 97.325 58.65 97.325C59.075 97.325 59.075 96.9 59.5 96.9C64.175 93.075 68 87.975 68 81.175C68 77.775 67.15 74.8 65.45 72.25C63.75 69.7 60.775 68 57.375 68ZM56.95 76.5C58.225 76.5 58.225 76.5 58.65 77.35C59.075 78.2 59.5 79.475 59.5 81.6C59.5 84.15 58.225 86.7 56.1 88.825C56.1 87.55 55.25 85.85 55.25 85C55.25 81.6 55.675 79.05 56.525 77.775C56.95 76.925 56.95 76.5 56.95 76.5Z" fill="white"/>
</svg>
