<svg width="121" height="101" viewBox="0 0 121 101" fill="none" xmlns="http://www.w3.org/2000/svg">
<path d="M40.1297 41.2314C42.7904 41.2314 45.3422 42.1968 47.2237 43.9151C49.1051 45.6334 50.1621 47.9639 50.1621 50.394C50.1621 52.8241 49.1051 55.1546 47.2237 56.8729C45.3422 58.5912 42.7904 59.5566 40.1297 59.5566C37.4689 59.5566 34.9171 58.5912 33.0357 56.8729C31.1542 55.1546 30.0973 52.8241 30.0973 50.394C30.0973 47.9639 31.1542 45.6334 33.0357 43.9151C34.9171 42.1968 37.4689 41.2314 40.1297 41.2314ZM60.1945 77.8817H20.0648V73.3004C20.0648 67.2073 33.4581 64.1378 40.1297 64.1378C46.8012 64.1378 60.1945 67.2073 60.1945 73.3004V77.8817ZM100.324 36.6502H70.2269V45.8127H100.324V36.6502ZM100.324 54.9753H70.2269V64.1378H100.324V54.9753ZM100.324 73.3004H70.2269V82.4629H100.324V73.3004ZM110.357 18.3251L84.5507 18.325V27.4875L110.357 27.4876V91.6255H10.0324V27.4876H36.1863V18.3251H10.0324C7.37166 18.3251 4.81987 19.2904 2.93843 21.0087C1.05698 22.727 0 25.0575 0 27.4876L0 91.6255C0 94.0556 1.05698 96.3861 2.93843 98.1044C4.81987 99.8227 7.37166 100.788 10.0324 100.788H110.357C113.017 100.788 115.569 99.8227 117.451 98.1044C119.332 96.3861 120.389 94.0556 120.389 91.6255V27.4876C120.389 25.0575 119.332 22.727 117.451 21.0087C115.569 19.2904 113.017 18.3251 110.357 18.3251Z" fill="white"/>
<path d="M60.8816 40.7716C60.476 40.7716 60.1515 40.69 59.7459 40.5266C58.0424 39.8733 57.2312 37.9948 57.799 36.3614L70.454 2.14119C71.103 0.426095 72.9688 -0.390616 74.5913 0.181082C76.2948 0.834451 77.1872 2.71289 76.5382 4.42798L63.8832 38.6482C63.3964 39.9549 62.1796 40.7716 60.8816 40.7716Z" fill="white"/>
<path d="M75.3213 28.276C74.9157 28.276 74.5912 28.1943 74.1856 28.031C72.4821 27.3776 71.6708 25.4992 72.2387 23.8657L72.4821 23.1307C73.131 21.4156 74.9969 20.5989 76.6193 21.1706C78.3229 21.824 79.1341 23.7024 78.5662 25.3358L78.404 26.1525C77.9172 27.4593 76.7004 28.276 75.3213 28.276Z" fill="white"/>
<path d="M55.6089 28.276C55.2033 28.276 54.8788 28.1943 54.4732 28.0309C52.7697 27.3776 51.9584 25.4991 52.5263 23.8657L60.5574 2.14119C61.2064 0.426095 63.0722 -0.390616 64.6946 0.181082C66.3982 0.834451 67.2094 2.71289 66.6415 4.34631L58.6105 26.1525C58.1237 27.4592 56.9069 28.276 55.6089 28.276Z" fill="white"/>
<path d="M45.712 28.276C45.3064 28.276 44.9819 28.1943 44.5763 28.031C42.8727 27.3776 42.0615 25.4992 42.6293 23.8657L47.091 11.7784C47.74 10.0633 49.6058 9.24659 51.2283 9.81829C52.9318 10.4717 53.743 12.3501 53.1752 13.9835L48.7135 26.1525C48.3079 27.4593 47.0099 28.276 45.712 28.276Z" fill="white"/>
</svg>
