<svg width="145" height="126" viewBox="0 0 145 126" fill="none" xmlns="http://www.w3.org/2000/svg">
<g clip-path="url(#clip0_243_108)">
<path d="M98.873 108.424H93.0173V102.568C93.0173 100.239 92.0918 98.0046 90.4446 96.3573C88.7973 94.7101 86.5632 93.7847 84.2336 93.7847H66.6663C64.3367 93.7847 62.1026 94.7101 60.4553 96.3573C58.808 98.0046 57.8826 100.239 57.8826 102.568V116.706H52.0269V102.568C52.0269 98.6857 53.5692 94.9621 56.3146 92.2167C59.0601 89.4713 62.7837 87.9289 66.6663 87.9289H84.2336C88.1162 87.9289 91.8398 89.4713 94.5852 92.2167C97.3307 94.9621 98.873 98.6857 98.873 102.568V108.424ZM75.4499 82.0731C73.143 82.0731 70.8586 81.6187 68.7272 80.7359C66.5959 79.853 64.6593 78.559 63.028 76.9278C61.3967 75.2965 60.1027 73.3599 59.2199 71.2285C58.337 69.0972 57.8826 66.8128 57.8826 64.5058C57.8826 62.1988 58.337 59.9144 59.2199 57.7831C60.1027 55.6517 61.3967 53.7151 63.028 52.0838C64.6593 50.4525 66.5959 49.1585 68.7272 48.2757C70.8586 47.3929 73.143 46.9385 75.4499 46.9385C80.1091 46.9385 84.5774 48.7893 87.8719 52.0838C91.1664 55.3783 93.0173 59.8467 93.0173 64.5058C93.0173 69.1649 91.1664 73.6333 87.8719 76.9278C84.5774 80.2223 80.1091 82.0731 75.4499 82.0731ZM75.4499 76.2173C78.556 76.2173 81.5349 74.9835 83.7313 72.7871C85.9276 70.5908 87.1615 67.6119 87.1615 64.5058C87.1615 61.3997 85.9276 58.4208 83.7313 56.2245C81.5349 54.0281 78.556 52.7943 75.4499 52.7943C72.3438 52.7943 69.365 54.0281 67.1686 56.2245C64.9723 58.4208 63.7384 61.3997 63.7384 64.5058C63.7384 67.6119 64.9723 70.5908 67.1686 72.7871C69.365 74.9835 72.3438 76.2173 75.4499 76.2173Z" fill="white"/>
</g>
<path d="M58.0529 120.144H11.6106V114.289C11.6106 110.406 13.1397 106.682 15.8614 103.937C18.5832 101.191 22.2747 99.6491 26.1238 99.6491H43.5397C47.3888 99.6491 51.0803 101.191 53.8021 103.937C56.5239 106.682 58.0529 110.406 58.0529 114.289V120.144ZM34.8318 93.7933C32.5447 93.7933 30.28 93.3389 28.167 92.4561C26.054 91.5733 24.1341 90.2793 22.5169 88.648C20.8997 87.0167 19.6168 85.0801 18.7416 82.9487C17.8664 80.8174 17.4159 78.533 17.4159 76.226C17.4159 73.919 17.8664 71.6347 18.7416 69.5033C19.6168 67.3719 20.8997 65.4353 22.5169 63.804C24.1341 62.1728 26.054 60.8788 28.167 59.9959C30.28 59.1131 32.5447 58.6587 34.8318 58.6587C39.4507 58.6587 43.8805 60.5095 47.1466 63.804C50.4128 67.0986 52.2476 71.5669 52.2476 76.226C52.2476 80.8852 50.4128 85.3535 47.1466 88.648C43.8805 91.9425 39.4507 93.7933 34.8318 93.7933Z" fill="white"/>
<path d="M104.239 42.6058L93.8943 50.7332V7.77402C93.8943 7.15816 94.1389 6.56752 94.5744 6.13204C95.0099 5.69656 95.6005 5.4519 96.2164 5.4519H138.015C138.63 5.4519 139.221 5.69656 139.657 6.13204C140.092 6.56752 140.337 7.15816 140.337 7.77402V40.2837C140.337 40.8995 140.092 41.4902 139.657 41.9257C139.221 42.3611 138.63 42.6058 138.015 42.6058H104.239ZM102.632 37.9615H135.692V10.0961H98.5385V41.1777L102.632 37.9615ZM114.793 21.7067H119.438V26.351H114.793V21.7067ZM105.505 21.7067H110.149V26.351H105.505V21.7067ZM124.082 21.7067H128.726V26.351H124.082V21.7067Z" fill="white"/>
<defs>
<clipPath id="clip0_243_108">
<rect width="70.2693" height="70.2693" fill="white" transform="translate(39.9807 45.4326)"/>
</clipPath>
</defs>
</svg>
